HIERARCHY
ROOT Hips
{
	OFFSET 0.00000 0.00000 0.00000
	CHANNELS 6 Xposition Yposition Zposition Zrotation Yrotation Xrotation 
	JOINT LHipJoint
	{
		OFFSET 0 0 0
		CHANNELS 3 Zrotation Yrotation Xrotation
		JOINT LeftUpLeg
		{
			OFFSET 1.62329 -1.80800 0.67318
			CHANNELS 3 Zrotation Yrotation Xrotation
			JOINT LeftLeg
			{
				OFFSET 2.57139 -7.06484 0.00000
				CHANNELS 3 Zrotation Yrotation Xrotation
				JOINT LeftFoot
				{
					OFFSET 2.52017 -6.92413 0.00000
					CHANNELS 3 Zrotation Yrotation Xrotation
					JOINT LeftToeBase
					{
						OFFSET 0.23295 -0.64001 2.10214
						CHANNELS 3 Zrotation Yrotation Xrotation
						End Site
						{
							OFFSET 0.00000 -0.00000 1.10139
						}
					}
				}
			}
		}
	}
	JOINT RHipJoint
	{
		OFFSET 0 0 0
		CHANNELS 3 Zrotation Yrotation Xrotation
		JOINT RightUpLeg
		{
			OFFSET -1.48061 -1.80800 0.67318
			CHANNELS 3 Zrotation Yrotation Xrotation
			JOINT RightLeg
			{
				OFFSET -2.63258 -7.23296 0.00000
				CHANNELS 3 Zrotation Yrotation Xrotation
				JOINT RightFoot
				{
					OFFSET -2.54779 -7.00000 0.00000
					CHANNELS 3 Zrotation Yrotation Xrotation
					JOINT RightToeBase
					{
						OFFSET -0.23067 -0.63376 2.12161
						CHANNELS 3 Zrotation Yrotation Xrotation
						End Site
						{
							OFFSET -0.00000 -0.00000 1.11000
						}
					}
				}
			}
		}
	}
	JOINT LowerBack
	{
		OFFSET 0 0 0
		CHANNELS 3 Zrotation Yrotation Xrotation
		JOINT Spine
		{
			OFFSET -0.02108 2.07573 -0.16981
			CHANNELS 3 Zrotation Yrotation Xrotation
			JOINT Spine1
			{
				OFFSET 0.05070 2.08439 -0.03141
				CHANNELS 3 Zrotation Yrotation Xrotation
				JOINT Neck
				{
					OFFSET 0 0 0
					CHANNELS 3 Zrotation Yrotation Xrotation
					JOINT Neck1
					{
						OFFSET -0.10731 1.60408 0.31370
						CHANNELS 3 Zrotation Yrotation Xrotation
						JOINT Head
						{
							OFFSET 0.08411 1.65679 -0.30822
							CHANNELS 3 Zrotation Yrotation Xrotation
							End Site
							{
								OFFSET 0.03911 1.69149 -0.14146
							}
						}
					}
				}
				JOINT LeftShoulder
				{
					OFFSET 0 0 0
					CHANNELS 3 Zrotation Yrotation Xrotation
					JOINT LeftArm
					{
						OFFSET 3.52315 0.73219 -0.54694
						CHANNELS 3 Zrotation Yrotation Xrotation
						JOINT LeftForeArm
						{
							OFFSET 5.32462 -0.00000 -0.00000
							CHANNELS 3 Zrotation Yrotation Xrotation
							JOINT LeftHand
							{
								OFFSET 3.48402 -0.00000 -0.00000
								CHANNELS 3 Zrotation Yrotation Xrotation
								JOINT LeftFingerBase
								{
									OFFSET 0 0 0
									CHANNELS 3 Zrotation Yrotation Xrotation
									JOINT LeftHandIndex1
									{
										OFFSET 0.57248 -0.00000 -0.00000
										CHANNELS 3 Zrotation Yrotation Xrotation
										End Site
										{
											OFFSET 0.46154 -0.00000 -0.00000
										}
									}
								}
								JOINT LThumb
								{
									OFFSET 0 0 0
									CHANNELS 3 Zrotation Yrotation Xrotation
									End Site
									{
										OFFSET 0.46859 -0.00000 0.46859
									}
								}
							}
						}
					}
				}
				JOINT RightShoulder
				{
					OFFSET 0 0 0
					CHANNELS 3 Zrotation Yrotation Xrotation
					JOINT RightArm
					{
						OFFSET -3.41766 0.93592 -0.10019
						CHANNELS 3 Zrotation Yrotation Xrotation
						JOINT RightForeArm
						{
							OFFSET -5.33589 -0.00000 -0.00000
							CHANNELS 3 Zrotation Yrotation Xrotation
							JOINT RightHand
							{
								OFFSET -3.64134 -0.00000 -0.00000
								CHANNELS 3 Zrotation Yrotation Xrotation
								JOINT RightFingerBase
								{
									OFFSET 0 0 0
									CHANNELS 3 Zrotation Yrotation Xrotation
									JOINT RightHandIndex1
									{
										OFFSET -0.73481 -0.00000 -0.00000
										CHANNELS 3 Zrotation Yrotation Xrotation
										End Site
										{
											OFFSET -0.59242 -0.00000 -0.00000
										}
									}
								}
								JOINT RThumb
								{
									OFFSET 0 0 0
									CHANNELS 3 Zrotation Yrotation Xrotation
									End Site
									{
										OFFSET -0.60147 -0.00000 0.60147
									}
								}
							}
						}
					}
				}
			}
		}
	}
}
MOTION
Frames: 15
Frame Time: .0083333
9.948 17.8302 0.3052 0 0 0 0 0 0 -21 0 0 0 0 0 0 0 0 0 0 0 0 0 0 21 0 0 0 0 0 0 0 0 0 0 0 0 0 0 0 0 0 0 0 0 0 0 -16 0 0 21 0 0 11 0 0 0 -8 0 0 0 0 0 0 0 0 0 0 0 0 0 0 0 0 0 0 0 0 8 0 0 0 0 0 0 0 0 0 0 0 0 0 0 0 0 0
9.9480 17.8302 0.3052 14.4748 -85.0678 -7.4204 0.0000 0.0000 0.0000 -15.8427 -4.7539 -14.6160 1.8085 8.4553 24.1056 -0.4337 15.0863 -15.8905 0.6458 -5.1408 -14.3107 0.0000 0.0000 0.0000 21.3743 9.8473 -13.0414 -2.6669 -10.1353 29.4159 -1.2356 3.2012 -20.1975 -0.1884 -2.7954 7.7097 0.7780 -0.4107 1.9023 2.8672 -0.5353 0.1554 2.5192 -0.2794 -0.8868 -6.8348 4.4316 -22.3463 2.3258 7.8891 23.8126 3.1870 3.1862 11.0323 -0.0000 0.0000 0.0000 -90.2107 -3.3593 35.6240 15.0078 -24.1570 -3.2291 -0.0000 -0.0000 9.2397 12.2993 22.5206 4.7735 -7.1250 0.0000 -0.0000 -16.9954 52.1742 -3.0745 -0.0000 0.0000 0.0000 84.2455 -10.6529 6.4942 -16.5939 26.3193 -3.9056 0.0000 0.0000 17.2417 -20.5899 2.2893 -0.8597 7.1250 -0.0000 -0.0000 4.6114 -27.5259 1.9641
9.9449 17.8294 0.3026 14.5544 -85.1642 -7.3809 0.0000 0.0000 0.0000 -15.8256 -4.7630 -14.7505 1.8144 8.4682 24.1455 -0.4542 15.2261 -15.8395 0.6769 -5.2610 -14.6544 0.0000 0.0000 0.0000 21.3650 9.8081 -13.2335 -2.6714 -10.1430 29.4411 -1.2204 3.2833 -20.0538 -0.1743 -2.6892 7.4146 1.0390 -0.3291 1.8611 2.8389 -0.4207 0.0918 2.3404 -0.2229 -0.9353 -6.7195 4.2870 -22.5137 2.0114 7.7561 24.3074 3.0604 3.0647 11.2811 -0.0000 0.0000 0.0000 -90.2649 -3.1728 35.8315 14.9200 -24.0346 -3.1933 -0.0000 -0.0000 9.3113 13.2849 23.2698 5.3291 -7.1250 0.0000 -0.0000 -16.3945 53.0691 -3.3255 -0.0000 0.0000 0.0000 84.2877 -10.7452 6.5737 -16.5740 26.2928 -3.8968 0.0000 0.0000 17.2008 -20.1787 2.6832 -0.9856 7.1250 -0.0000 -0.0000 4.9135 -27.1130 2.1415
9.9382 17.8289 0.2906 14.5543 -85.1601 -7.4406 0.0000 0.0000 0.0000 -15.7793 -4.7674 -14.6280 1.8095 8.4576 24.1127 -0.4446 15.1732 -15.8887 0.6475 -5.1473 -14.3292 0.0000 0.0000 0.0000 21.4349 9.8213 -13.1561 -2.6822 -10.1620 29.5029 -1.2325 3.2776 -20.1583 -0.2027 -2.8987 7.9968 1.1126 -0.2855 1.9145 2.8452 -0.3605 0.1097 2.3042 -0.1934 -0.9493 -6.4411 4.2515 -22.5892 1.6435 7.7260 24.7716 2.8969 2.9994 11.5063 -0.0000 0.0000 0.0000 -90.4258 -3.0595 35.5888 14.7260 -23.7630 -3.1147 -0.0000 -0.0000 9.7724 13.6353 23.1788 5.4540 -7.1250 0.0000 -0.0000 -16.0071 53.0432 -3.2333 -0.0000 0.0000 0.0000 84.3510 -10.7957 6.6033 -16.5978 26.3245 -3.9073 0.0000 0.0000 17.3413 -19.8766 2.8036 -1.0131 7.1250 -0.0000 -0.0000 5.1403 -26.9902 2.2560
9.9341 17.8312 0.2798 15.2435 -85.0763 -8.2412 0.0000 0.0000 0.0000 -15.8166 -4.7735 -14.5068 1.8154 8.4706 24.1527 -0.4316 15.0542 -15.8592 0.6577 -5.1872 -14.4431 0.0000 0.0000 0.0000 21.4377 9.6312 -13.0712 -2.6839 -10.1648 29.5120 -1.2394 3.3026 -20.2123 -0.2500 -3.2175 8.8849 1.1495 -0.2838 2.0423 2.8357 -0.3550 0.1439 2.2743 -0.1909 -0.9864 -6.6584 4.1094 -22.6188 1.7185 7.5895 25.1113 2.9511 2.9081 11.6369 -0.0000 -0.0000 0.0000 -90.6598 -2.9396 35.5084 14.5813 -23.5596 -3.0566 -0.0000 -0.0000 9.9246 14.0475 23.5415 5.7070 -7.1250 0.0000 -0.0000 -15.7763 53.4696 -3.3514 -0.0000 -0.0000 0.0000 84.3154 -10.7962 6.9261 -16.5899 26.3140 -3.9038 0.0000 0.0000 17.4179 -19.7933 2.7137 -0.9762 7.1250 -0.0000 -0.0000 5.2072 -27.0866 2.2738
9.9342 17.8310 0.2731 16.6964 -85.0127 -9.7302 0.0000 0.0000 0.0000 -15.9394 -4.7576 -14.5072 1.8226 8.4862 24.2010 -0.4447 15.0711 -15.6787 0.7215 -5.4278 -15.1328 0.0000 0.0000 0.0000 21.3299 9.5029 -13.0563 -2.6800 -10.1580 29.4900 -1.2352 3.2864 -20.1797 -0.2269 -3.0661 8.4630 1.1901 -0.2650 2.1420 2.7986 -0.3257 0.1417 2.2131 -0.1762 -1.0459 -7.1293 3.8748 -22.5794 2.0184 7.3397 25.4173 3.1082 2.7748 11.7264 0.0000 0.0000 0.0000 -90.7859 -2.7720 35.8123 14.5237 -23.4784 -3.0336 -0.0000 -0.0000 9.6528 16.1424 24.9563 6.9626 -7.1250 0.0000 -0.0000 -14.3820 55.2476 -3.6741 0.0000 0.0000 0.0000 84.2272 -10.8138 7.4350 -16.5691 26.2863 -3.8946 0.0000 0.0000 17.3975 -19.5341 2.7951 -0.9912 7.1250 -0.0000 -0.0000 5.4023 -27.0045 2.3701
9.9320 17.8289 0.2648 17.1298 -85.0549 -10.1671 0.0000 0.0000 0.0000 -15.9221 -4.6788 -14.5635 1.8309 8.5045 24.2573 -0.4408 15.0210 -15.6407 0.7000 -5.3481 -14.9041 0.0000 0.0000 0.0000 21.3283 9.6852 -12.9557 -2.6739 -10.1475 29.4558 -1.2418 3.1481 -20.2599 -0.1697 -2.6541 7.3172 1.3240 -0.2238 2.1807 2.7613 -0.2658 0.1196 2.0981 -0.1469 -1.0927 -7.3334 3.7468 -22.4543 2.2118 7.1654 25.7788 3.1945 2.6835 11.8340 -0.0000 -0.0000 0.0000 -90.8588 -2.6206 35.7795 14.4019 -23.3064 -2.9853 -0.0000 -0.0000 9.9169 13.5165 23.8804 5.5582 -7.1250 0.0000 -0.0000 -16.4681 53.7015 -3.5992 -0.0000 -0.0000 0.0000 84.2130 -10.8493 7.9269 -16.5649 26.2805 -3.8927 0.0000 0.0000 17.4108 -19.2155 2.9189 -1.0168 7.1250 -0.0000 -0.0000 5.6407 -26.8790 2.4923
9.9263 17.8309 0.2555 17.5012 -85.1218 -10.4837 0.0000 0.0000 0.0000 -15.8838 -4.5916 -14.6927 1.8461 8.5378 24.3599 -0.4290 14.9348 -15.6599 0.6643 -5.2126 -14.5158 0.0000 0.0000 0.0000 21.3203 9.9476 -12.8796 -2.6633 -10.1289 29.3950 -1.2474 3.1118 -20.3138 -0.1786 -2.7219 7.5055 1.3887 -0.1935 2.1274 2.7553 -0.2241 0.0711 2.0542 -0.1262 -1.1140 -7.2447 3.6734 -22.2901 2.1412 7.0348 26.2032 3.1434 2.5994 11.9822 0.0000 0.0000 0.0000 -91.0170 -2.4893 35.2902 14.2306 -23.0633 -2.9178 -0.0000 -0.0000 10.3536 12.7357 23.4642 5.1424 -7.1250 0.0000 -0.0000 -17.0280 53.1591 -3.4980 0.0000 0.0000 0.0000 84.1961 -10.8373 8.2015 -16.5303 26.2345 -3.8774 0.0000 0.0000 17.6438 -19.1715 2.9851 -1.0373 7.1250 -0.0000 -0.0000 5.6716 -26.8099 2.5154
9.9179 17.8317 0.2497 18.6338 -85.1734 -11.6029 0.0000 0.0000 0.0000 -15.9374 -4.4261 -14.7827 1.8632 8.5751 24.4749 -0.3982 14.7180 -15.7326 0.6125 -5.0091 -13.9346 0.0000 0.0000 0.0000 21.2579 9.9479 -12.8378 -2.6520 -10.1093 29.3312 -1.2395 3.0803 -20.2526 -0.1604 -2.5808 7.1137 1.4144 -0.1633 2.0551 2.7254 -0.1844 0.0479 2.0076 -0.1063 -1.0985 -7.1629 3.5452 -22.1409 2.0726 6.8288 26.6722 3.0840 2.4785 12.1558 -0.0000 0.0000 0.0000 -91.0843 -2.3700 35.0766 14.0669 -22.8302 -2.8540 -0.0000 -0.0000 10.3030 14.3459 23.9979 5.9382 -7.1250 0.0000 -0.0000 -15.7050 53.9681 -3.5292 -0.0000 0.0000 0.0000 84.1780 -10.8086 8.4235 -16.4976 26.1907 -3.8630 0.0000 0.0000 17.8989 -19.3498 3.1524 -1.1063 7.1250 -0.0000 -0.0000 5.5295 -26.6306 2.4751
9.9077 17.8281 0.2426 19.2314 -85.1882 -12.2675 0.0000 0.0000 0.0000 -15.9636 -4.2051 -14.7963 1.8773 8.6057 24.5693 -0.3798 14.5365 -15.6751 0.6276 -5.0693 -14.1064 0.0000 0.0000 0.0000 21.2749 9.7650 -12.7611 -2.6461 -10.0988 29.2974 -1.2325 3.0254 -20.2037 -0.1196 -2.2295 6.1402 1.5094 -0.1555 1.9792 2.6885 -0.1759 0.0912 1.9154 -0.1025 -1.0121 -7.2955 3.3780 -22.1125 2.2019 6.5971 27.2535 3.1372 2.3456 12.3834 0.0000 -0.0000 0.0000 -91.1639 -2.2741 34.9718 13.9306 -22.6354 -2.8013 -0.0000 -0.0000 10.1975 12.7588 23.2136 5.1003 -7.1250 0.0000 -0.0000 -16.8820 52.9218 -3.3671 0.0000 -0.0000 0.0000 84.1635 -10.6883 8.7666 -16.4514 26.1289 -3.8426 0.0000 0.0000 18.0868 -19.3221 3.3375 -1.1694 7.1250 -0.0000 -0.0000 5.5439 -26.4360 2.5071
9.9019 17.8272 0.2303 19.2611 -85.1632 -12.3695 0.0000 0.0000 0.0000 -15.9365 -3.8493 -14.8894 1.8896 8.6322 24.6513 -0.3700 14.2810 -15.3357 0.7146 -5.4022 -15.0593 0.0000 0.0000 0.0000 21.3240 9.6710 -12.6915 -2.6478 -10.1019 29.3073 -1.2340 3.1061 -20.2017 -0.1279 -2.3054 6.3503 1.5183 -0.1787 1.9993 2.7394 -0.2067 0.0961 1.9638 -0.1183 -1.0175 -7.5629 3.2068 -21.9452 2.3115 6.3948 27.8051 3.2038 2.2095 12.5693 0.0000 0.0000 0.0000 -91.4342 -2.1405 34.5521 13.8020 -22.4510 -2.7520 -0.0000 -0.0000 10.2194 12.5832 23.2868 5.0431 -7.1250 0.0000 -0.0000 -17.0894 52.9613 -3.4272 0.0000 0.0000 0.0000 84.0442 -10.5810 8.9937 -16.4608 26.1415 -3.8467 0.0000 0.0000 18.5277 -18.9777 3.4509 -1.1858 7.1250 -0.0000 -0.0000 5.8012 -26.3232 2.6399
9.9007 17.8284 0.2166 19.0987 -85.0840 -12.2736 0.0000 0.0000 0.0000 -15.8971 -3.4331 -15.0586 1.9023 8.6596 24.7362 -0.3566 13.9312 -14.8737 0.8159 -5.7637 -16.1005 0.0000 0.0000 0.0000 21.3717 9.6198 -12.6326 -2.6535 -10.1118 29.3394 -1.2390 3.1940 -20.2277 -0.1469 -2.4698 6.8058 1.4086 -0.2342 2.0828 2.8659 -0.2801 0.0626 2.1584 -0.1550 -1.0958 -7.7914 3.0468 -21.6602 2.3125 6.2100 28.2821 3.2191 2.0728 12.7095 0.0000 0.0000 0.0000 -91.7638 -1.9291 34.0241 13.7222 -22.3362 -2.7217 -0.0000 -0.0000 10.4037 11.4522 22.4607 4.4257 -7.1250 0.0000 -0.0000 -17.7841 51.9731 -3.1352 0.0000 0.0000 0.0000 83.8309 -10.5129 9.2045 -16.5254 26.2278 -3.8752 0.0000 0.0000 18.8766 -18.6785 3.5378 -1.1951 7.1250 -0.0000 -0.0000 6.0248 -26.2377 2.7548
9.9007 17.8291 0.2061 19.8671 -84.8933 -13.0364 0.0000 0.0000 0.0000 -15.9813 -3.2916 -15.2056 1.9084 8.6726 24.7763 -0.3539 13.7234 -14.5059 0.8902 -6.0139 -16.8247 0.0000 0.0000 0.0000 21.2841 9.5885 -12.6634 -2.6651 -10.1321 29.4055 -1.2516 3.1659 -20.3392 -0.1541 -2.5299 6.9724 1.2502 -0.3275 2.1309 2.9367 -0.4045 0.0031 2.3248 -0.2162 -1.1789 -8.0100 2.8622 -21.5741 2.4628 5.9601 28.9294 3.2925 1.9189 12.9592 0.0000 0.0000 0.0000 -92.0128 -1.6758 33.8666 13.7177 -22.3298 -2.7199 -0.0000 -0.0000 10.0460 11.5108 22.5585 4.4672 -7.1250 0.0000 -0.0000 -17.7746 52.0767 -3.1795 0.0000 0.0000 0.0000 83.5516 -10.3896 9.6963 -16.5557 26.2683 -3.8887 0.0000 0.0000 18.7588 -18.3820 3.4102 -1.1324 7.1250 -0.0000 -0.0000 6.2547 -26.3772 2.8405
9.8989 17.8262 0.1953 21.0772 -84.7327 -14.1966 0.0000 0.0000 0.0000 -16.0927 -3.4577 -15.2337 1.9092 8.6742 24.7815 -0.3664 13.7705 -14.3753 0.9182 -6.1051 -17.0897 0.0000 0.0000 0.0000 21.1602 9.6606 -12.7216 -2.6803 -10.1586 29.4918 -1.2695 3.0688 -20.5078 -0.1549 -2.5359 6.9892 1.0495 -0.3956 2.1041 2.9556 -0.4984 -0.0525 2.4602 -0.2614 -1.2162 -8.2934 2.5993 -21.5097 2.7805 5.5642 29.5693 3.4198 1.7182 13.2150 -0.0000 -0.0000 0.0000 -92.1737 -1.5244 33.8136 13.6715 -22.2631 -2.7024 -0.0000 -0.0000 9.5956 12.5799 23.4400 5.0728 -7.1250 0.0000 -0.0000 -17.1684 53.1080 -3.5064 -0.0000 -0.0000 0.0000 83.3687 -10.2398 10.1433 -16.6002 26.3277 -3.9084 0.0000 0.0000 18.5968 -18.2063 3.2723 -1.0756 7.1250 -0.0000 -0.0000 6.3940 -26.5246 2.8824
9.8948 17.8256 0.1830 21.6504 -84.7044 -14.8137 0.0000 0.0000 0.0000 -16.0936 -3.6256 -15.1018 1.9086 8.6731 24.7779 -0.3732 13.8635 -14.4424 0.9066 -6.0677 -16.9809 0.0000 0.0000 0.0000 21.1597 9.7111 -12.6816 -2.6966 -10.1869 29.5840 -1.2842 3.0666 -20.6311 -0.1927 -2.8271 7.7978 0.9678 -0.3691 2.1519 2.9459 -0.4616 -0.1052 2.4958 -0.2419 -1.2978 -8.5172 2.2863 -21.2537 2.9712 5.0835 30.1138 3.4653 1.4736 13.4110 0.0000 -0.0000 0.0000 -92.2630 -1.4035 33.2943 13.4970 -22.0111 -2.6366 -0.0000 -0.0000 10.5149 11.6744 23.1802 4.6498 -7.1250 0.0000 -0.0000 -17.9210 52.6996 -3.4857 0.0000 -0.0000 0.0000 83.3483 -10.1880 10.2434 -16.6459 26.3886 -3.9287 0.0000 0.0000 18.7372 -18.0649 3.4203 -1.1148 7.1250 -0.0000 -0.0000 6.4948 -26.3723 2.9516
